# xmcd CD database file
#
# Track frame offsets:
#	183
#	25498
#	51863
#	78368
#	103965
#	130295
#	150285
#	171750
#	200783
#	223790
#	249578
#	276235
#
# Disc length: 3954 seconds
#
# Revision: 0
# Processed by: cddbd v1.5.1PL0 Copyright (c) Steve Scherf et al.
# Submitted via: CDex 1.51
#
DISCID=af0f700c
DTITLE=George Masso - Just For A Thrill
DYEAR=1990
DGENRE=Jazz
TTITLE0=Summer Night
TTITLE1=A Child Is Born
TTITLE2=You Brought A New Kind Of Love To Me
TTITLE3=Soft Lights And Sweet Music
TTITLE4=Just For A Thrill
TTITLE5=Love Walked In
TTITLE6=The Touch Of Your Lips
TTITLE7=I Remember You
TTITLE8=That Old Feeling
TTITLE9=Half Of It Dearie Bules
TTITLE10=A Sleepin' Bee
TTITLE11=Fred
EXTD=YEAR: 1990
EXTT0=
EXTT1=
EXTT2=
EXTT3=
EXTT4=
EXTT5=
EXTT6=
EXTT7=
EXTT8=
EXTT9=
EXTT10=
EXTT11=
PLAYORDER=
